<?xml version="1.0" encoding="iso-8859-1"?>
<!-- Generator: Adobe Illustrator 19.0.0, SVG Export Plug-In . SVG Version: 6.00 Build 0)  -->
<svg version="1.1" id="Layer_1" xmlns="http://www.w3.org/2000/svg" xmlns:xlink="http://www.w3.org/1999/xlink" x="0px" y="0px"
	 viewBox="0 0 512 512" style="enable-background:new 0 0 512 512;" xml:space="preserve">
<g>
	<g>
		<g>
			<path d="M256,443.733c28.237,0,51.2-22.963,51.2-51.2v-25.6c0-23.526-19.14-42.667-42.667-42.667h-17.067
				c-23.526,0-42.667,19.14-42.667,42.667v25.6C204.8,420.77,227.763,443.733,256,443.733z M221.867,366.933
				c0-14.114,11.486-25.6,25.6-25.6h17.067c14.114,0,25.6,11.486,25.6,25.6v25.6c0,18.825-15.309,34.133-34.133,34.133
				c-18.825,0-34.133-15.309-34.133-34.133V366.933z"/>
			<path d="M85.333,443.733c28.237,0,51.2-22.963,51.2-51.2v-25.6c0-23.526-19.14-42.667-42.667-42.667H76.8
				c-23.526,0-42.667,19.14-42.667,42.667v25.6C34.133,420.77,57.097,443.733,85.333,443.733z M51.2,366.933
				c0-14.114,11.486-25.6,25.6-25.6h17.067c14.114,0,25.6,11.486,25.6,25.6v25.6c0,18.825-15.309,34.133-34.133,34.133
				c-18.825,0-34.133-15.309-34.133-34.133V366.933z"/>
			<path d="M426.667,443.733c28.237,0,51.2-22.963,51.2-51.2v-25.6c0-23.526-19.14-42.667-42.667-42.667h-17.067
				c-23.526,0-42.667,19.14-42.667,42.667v25.6C375.467,420.77,398.43,443.733,426.667,443.733z M392.533,366.933
				c0-14.114,11.486-25.6,25.6-25.6H435.2c14.114,0,25.6,11.486,25.6,25.6v25.6c0,18.825-15.309,34.133-34.133,34.133
				s-34.133-15.309-34.133-34.133V366.933z"/>
			<path d="M469.333,460.8H384c-18.688,0-32.964,7.603-42.667,22.647c-9.702-15.044-23.979-22.647-42.667-22.647h-85.333
				c-18.688,0-32.964,7.603-42.667,22.647C160.964,468.403,146.679,460.8,128,460.8H42.667C19.14,460.8,0,479.94,0,503.467
				C0,508.177,3.814,512,8.533,512s8.533-3.823,8.533-8.533c0-14.114,11.486-25.6,25.6-25.6H128
				c11.699,0,26.206,3.217,34.577,28.297c1.152,3.49,4.412,5.837,8.09,5.837s6.938-2.347,8.09-5.837
				c8.371-25.08,22.878-28.297,34.577-28.297h85.333c11.699,0,26.206,3.217,34.577,28.297c1.161,3.49,4.412,5.837,8.09,5.837
				c3.678,0,6.929-2.347,8.09-5.837c8.371-25.08,22.878-28.297,34.577-28.297h85.333c14.114,0,25.6,11.486,25.6,25.6
				c0,4.71,3.814,8.533,8.533,8.533c4.719,0,8.533-3.823,8.533-8.533C512,479.94,492.86,460.8,469.333,460.8z"/>
			<path d="M256,221.867c-9.404,0-17.067,7.654-17.067,17.067c0,6.289,3.456,11.733,8.533,14.694v10.906
				c0,4.71,3.814,8.533,8.533,8.533s8.533-3.823,8.533-8.533v-10.906c5.077-2.961,8.533-8.405,8.533-14.694
				C273.067,229.521,265.412,221.867,256,221.867z"/>
			<path d="M300.041,221.978h-1.391c-4.258,0.009-7.868,3.157-8.439,7.381l-4.634,34.022c-0.631,4.668,2.628,8.969,7.305,9.6
				c4.676,0.623,8.977-2.628,9.609-7.305l3.618-26.598c53.717,0.623,80.606,9.395,86.869,28.151c1.186,3.576,4.514,5.837,8.09,5.837
				c0.887,0,1.8-0.137,2.697-0.435c4.471-1.493,6.886-6.332,5.393-10.795C397.542,226.97,350.012,221.978,300.041,221.978z"/>
			<path d="M221.79,229.359c-0.58-4.224-4.181-7.373-8.439-7.381c-50.543,0.145-98.773,4.668-110.507,39.859
				c-1.493,4.463,0.922,9.301,5.393,10.795c0.896,0.299,1.801,0.435,2.697,0.435c3.575,0,6.903-2.261,8.09-5.837
				c6.263-18.756,33.152-27.529,86.869-28.151l3.627,26.607c0.631,4.668,4.881,7.902,9.609,7.296
				c4.676-0.64,7.936-4.932,7.305-9.609L221.79,229.359z"/>
			<path d="M469.333,0H42.667C19.14,0,0,19.14,0,42.667v221.867C0,288.06,19.14,307.2,42.667,307.2h426.667
				c23.526,0,42.667-19.14,42.667-42.667V42.667C512,19.14,492.86,0,469.333,0z M494.933,264.533c0,14.114-11.486,25.6-25.6,25.6
				H42.667c-14.114,0-25.6-11.486-25.6-25.6V42.667c0-14.114,11.486-25.6,25.6-25.6h426.667c14.114,0,25.6,11.486,25.6,25.6V264.533
				z"/>
			<path d="M230.4,119.467h8.533c4.719,0,8.533-3.823,8.533-8.533s-3.814-8.533-8.533-8.533H230.4c-4.719,0-8.533,3.823-8.533,8.533
				S225.681,119.467,230.4,119.467z"/>
			<path d="M273.067,119.467h8.533c4.719,0,8.533-3.823,8.533-8.533s-3.814-8.533-8.533-8.533h-8.533
				c-4.719,0-8.533,3.823-8.533,8.533S268.348,119.467,273.067,119.467z"/>
			<path d="M188.058,134.426c1.63,16.401,8.764,30.839,9.114,31.522C204.902,181.419,216.593,204.8,256,204.8
				s51.098-23.381,58.829-38.852c0.35-0.683,7.475-15.121,9.114-31.522c5.274-2.901,8.858-8.525,8.858-14.959V102.4
				c0-6.306-3.43-11.819-8.533-14.771v-2.295c0-28.237-22.963-51.2-51.2-51.2h-34.133c-28.237,0-51.2,22.963-51.2,51.2v2.295
				c-5.103,2.953-8.533,8.465-8.533,14.771v17.067C179.2,125.901,182.784,131.524,188.058,134.426z M196.267,102.4
				c4.719,0,8.533-3.823,8.533-8.533v-8.533c0-18.825,15.309-34.133,34.133-34.133h34.133c18.825,0,34.133,15.309,34.133,34.133
				v8.533c0,4.71,3.814,8.533,8.533,8.533v17.067c-4.719,0-8.533,3.823-8.533,8.533c0,14.763-7.561,30.174-7.629,30.319
				c-8.892,17.766-16.725,29.414-43.571,29.414c-26.854,0-34.688-11.648-43.563-29.406c-0.077-0.154-7.637-15.565-7.637-30.327
				c0-4.71-3.814-8.533-8.533-8.533V102.4z"/>
		</g>
	</g>
</g>
<g>
</g>
<g>
</g>
<g>
</g>
<g>
</g>
<g>
</g>
<g>
</g>
<g>
</g>
<g>
</g>
<g>
</g>
<g>
</g>
<g>
</g>
<g>
</g>
<g>
</g>
<g>
</g>
<g>
</g>
</svg>
