<?xml version="1.0" encoding="iso-8859-1"?>
<!-- Generator: Adobe Illustrator 19.0.0, SVG Export Plug-In . SVG Version: 6.00 Build 0)  -->
<svg version="1.1" id="Layer_1" xmlns="http://www.w3.org/2000/svg" xmlns:xlink="http://www.w3.org/1999/xlink" x="0px" y="0px"
	 viewBox="0 0 512 512" style="enable-background:new 0 0 512 512;" xml:space="preserve">
<path style="fill:#D1D3D4;" d="M376.853,434.238h-39.696l-10.214-59.489c-1.605-9.355-9.719-16.194-19.21-16.194H204.268
	c-9.493,0-17.604,6.838-19.212,16.194l-10.214,59.489h-39.696c-10.765,0-19.492,8.727-19.492,19.492
	c0,10.765,8.727,19.492,19.492,19.492c11.424,0,229.887,0,241.706,0c10.765,0,19.492-8.727,19.492-19.492
	C396.345,442.966,387.618,434.238,376.853,434.238z"/>
<path style="fill:#BCBEC0;" d="M376.853,434.238h-39.696l-10.214-59.489c-1.605-9.355-9.719-16.194-19.21-16.194H256v114.667
	c18.979,0,106.972,0,120.853,0c10.765,0,19.492-8.727,19.492-19.492C396.345,442.966,387.618,434.238,376.853,434.238z"/>
<path style="fill:#F1F2F2;" d="M453.523,397.541H58.477C26.181,397.541,0,371.36,0,339.064v-47.678h512v47.678
	C512,371.36,485.819,397.541,453.523,397.541z"/>
<path style="fill:#E6E7E8;" d="M255.996,291.385v106.156h197.527c32.296,0,58.477-26.181,58.477-58.477v-47.678L255.996,291.385
	L255.996,291.385z"/>
<path style="fill:#36495E;" d="M512,330.37H0V97.254c0-32.296,26.181-58.477,58.477-58.477h395.046
	c32.296,0,58.477,26.181,58.477,58.477V330.37z"/>
<path style="fill:#2C3E50;" d="M512,97.254c0-32.296-26.181-58.477-58.477-58.477H255.996V330.37H512V97.254z"/>
<path style="fill:#FF7876;" d="M460.02,330.37H51.98V110.249c0-10.765,8.727-19.492,19.492-19.492h369.056
	c10.765,0,19.492,8.727,19.492,19.492V330.37z"/>
<path style="fill:#FF5E5B;" d="M460.02,110.249c0-10.765-8.727-19.492-19.492-19.492H255.996V330.37H460.02V110.249z"/>
<path style="fill:#F1F2F2;" d="M321.94,178.98l-23.859,13.775v-12.708c0-10.765-8.727-19.492-19.492-19.492h-88.313
	c-10.765,0-19.492,8.727-19.492,19.492v61.031c0,10.765,8.727,19.492,19.492,19.492h88.313c10.765,0,19.492-8.727,19.492-19.492
	v-12.709l23.859,13.775c8.548,4.935,19.277-1.241,19.277-11.13v-40.905C341.217,180.24,330.504,174.036,321.94,178.98z"/>
<path style="fill:#E6E7E8;" d="M321.94,178.98l-23.859,13.775v-12.708c0-10.765-8.727-19.492-19.492-19.492h-22.593V260.57h22.593
	c10.765,0,19.492-8.727,19.492-19.492v-12.709l23.859,13.775c8.548,4.935,19.277-1.241,19.277-11.13v-40.905
	C341.217,180.24,330.504,174.036,321.94,178.98z"/>
<g>
</g>
<g>
</g>
<g>
</g>
<g>
</g>
<g>
</g>
<g>
</g>
<g>
</g>
<g>
</g>
<g>
</g>
<g>
</g>
<g>
</g>
<g>
</g>
<g>
</g>
<g>
</g>
<g>
</g>
</svg>
