<?xml version="1.0" encoding="iso-8859-1"?>
<!-- Generator: Adobe Illustrator 19.0.0, SVG Export Plug-In . SVG Version: 6.00 Build 0)  -->
<svg version="1.1" id="Layer_1" xmlns="http://www.w3.org/2000/svg" xmlns:xlink="http://www.w3.org/1999/xlink" x="0px" y="0px"
	 viewBox="0 0 512.001 512.001" style="enable-background:new 0 0 512.001 512.001;" xml:space="preserve">
<path style="fill:#181818;" d="M354.505,492.444l-86.921-91.634V11.584C267.584,5.187,262.397,0,256,0
	c-6.397,0-11.584,5.187-11.584,11.584V400.81l-86.921,91.634c-4.403,4.642-4.21,11.973,0.432,16.376
	c4.64,4.405,11.974,4.21,16.376-0.432l70.113-73.914v65.943c0,6.397,5.187,11.584,11.584,11.584c6.397,0,11.584-5.187,11.584-11.584
	v-65.943l70.113,73.914c2.277,2.401,5.338,3.612,8.406,3.612c2.862,0,5.729-1.054,7.97-3.18
	C358.714,504.417,358.908,497.086,354.505,492.444z"/>
<rect x="34.752" y="34.751" style="fill:#BEC8D6;" width="442.498" height="301.176"/>
<path style="fill:#4C5870;" d="M488.833,347.511H23.168c-6.397,0-11.584-5.187-11.584-11.584c0-6.397,5.187-11.584,11.584-11.584
	h465.665c6.397,0,11.584,5.187,11.584,11.584C500.417,342.324,495.231,347.511,488.833,347.511z"/>
<g>
</g>
<g>
</g>
<g>
</g>
<g>
</g>
<g>
</g>
<g>
</g>
<g>
</g>
<g>
</g>
<g>
</g>
<g>
</g>
<g>
</g>
<g>
</g>
<g>
</g>
<g>
</g>
<g>
</g>
</svg>
